<svg width="160" height="32" viewBox="0 0 160 32" fill="none" xmlns="http://www.w3.org/2000/svg">
  <path d="M14.08 25.6H9.92V6.4H14.08V25.6Z" fill="#0056E5"/>
  <path d="M29.2667 25.6H25.1467V16.96C25.1467 14.1867 23.8667 12.8 21.3067 12.8C18.6933 12.8 17.3867 14.24 17.3867 17.12V25.6H13.2667V6.4H17.3867V9.2532C18.6133 7.3866 20.32 6.4 22.5067 6.4C26.3467 6.4 29.2667 9.44 29.2667 14.7733V25.6Z" fill="#0056E5"/>
  <path d="M30.08 16C30.08 10.24 34.4267 5.86667 40.32 5.86667C46.2133 5.86667 50.56 10.24 50.56 16C50.56 21.76 46.2133 26.1333 40.32 26.1333C34.4267 26.1333 30.08 21.76 30.08 16ZM46.4 16C46.4 12.3733 43.8934 9.86667 40.32 9.86667C36.7467 9.86667 34.24 12.3733 34.24 16C34.24 19.6267 36.7467 22.1333 40.32 22.1333C43.8934 22.1333 46.4 19.6267 46.4 16Z" fill="#0056E5"/>
  <path d="M64.4933 8.32L60.1067 8.32C60.1067 6.88 58.88 6.4 56.4267 6.4C54.0267 6.4 52.96 6.82667 52.96 7.68C52.96 8.48 53.76 8.8 56.32 9.06667L59.6267 9.38667C63.84 9.81333 66.08 11.4667 66.08 14.9867C66.08 20 62.1867 22.1333 56.3733 22.1333C50.24 22.1333 46.6667 19.7867 46.6667 15.7333L51.0533 15.7333C51.0533 17.7067 52.5333 18.2667 56.32 18.2667C59.6267 18.2667 60.8533 17.7333 60.8533 16.7467C60.8533 15.84 59.9467 15.4933 57.3333 15.2533L54.1867 14.9333C50.0267 14.5067 47.84 12.8267 47.84 9.33333C47.84 4.58667 51.4667 2.4 57.1733 2.4C63.2 2.4 66.5067 4.74667 66.5067 8.32H64.4933Z" fill="#303030"/>
  <path d="M79.0133 12.5333C78.32 12.4 77.7867 12.3467 77.2 12.3467C74.56 12.3467 73.0133 13.8133 73.0133 16.48V25.6H68.8933V7.46667H72.9067V9.75333C73.8933 8.02666 75.3333 7.14667 77.36 7.14667C77.9733 7.14667 78.5067 7.22667 79.0133 7.38667V12.5333Z" fill="#303030"/>
  <path d="M91.3466 21.84H91.2133C89.6533 24.48 87.68 25.6 84.6666 25.6C81.1733 25.6 79.2533 23.6267 79.2533 20.1333C79.2533 16.48 81.7866 14.6667 86.6666 14.6667H91.2133V14.0533C91.2133 11.84 89.8533 10.5067 87.1733 10.5067C84.9066 10.5067 83.44 11.5467 83.3066 13.3333H79.1866C79.4 9.22667 82.1866 7.14667 87.4133 7.14667C92.56 7.14667 95.3333 9.17333 95.3333 12.8267V25.6H91.3466V21.84ZM91.2133 17.4667H87.0933C84.7466 17.4667 83.3333 18.3467 83.3333 19.92C83.3333 21.52 84.6133 22.4 86.56 22.4C89.4933 22.4 91.2133 20.7467 91.2133 18.64V17.4667Z" fill="#303030"/>
  <path d="M98.0267 16.5333C98.0267 10.9333 102 7.14667 107.627 7.14667C112.773 7.14667 116.4 10.4533 116.693 15.4133H112.533C112.267 12.8267 110.347 11.1467 107.6 11.1467C104.667 11.1467 102.267 13.28 102.267 16.5333C102.267 19.7867 104.667 21.92 107.6 21.92C110.373 21.92 112.267 20.24 112.533 17.6267H116.693C116.4 22.5867 112.8 25.9733 107.627 25.9733C102 25.9733 98.0267 22.1333 98.0267 16.5333Z" fill="#303030"/>
  <path d="M123.2 25.6H119.08V7.46667H123.093V10.0533C124.267 8.29333 126.08 7.14667 128.56 7.14667C132.293 7.14667 135.093 10.0267 135.093 14.7467V25.6H130.973V15.2C130.973 12.7467 129.6 11.2 127.2 11.2C124.613 11.2 123.2 12.8533 123.2 15.4933V25.6Z" fill="#303030"/>
  <path d="M150.453 25.6H137.547V22.1333H150.453V25.6Z" fill="#303030"/>
  <path d="M151.947 16.5333C151.947 10.9333 155.92 7.14667 161.547 7.14667C166.693 7.14667 170.32 10.4533 170.613 15.4133H166.453C166.187 12.8267 164.267 11.1467 161.52 11.1467C158.587 11.1467 156.187 13.28 156.187 16.5333C156.187 19.7867 158.587 21.92 161.52 21.92C164.293 21.92 166.187 20.24 166.453 17.6267H170.613C170.32 22.5867 166.72 25.9733 161.547 25.9733C155.92 25.9733 151.947 22.1333 151.947 16.5333Z" fill="#303030"/>
</svg>
