<svg width="24" height="24" viewBox="0 0 24 24" fill="none" xmlns="http://www.w3.org/2000/svg">
<path d="M17.625 8.58838H10.875M18.75 2.96338C19.3467 2.96338 19.919 3.20043 20.341 3.62239C20.7629 4.04435 21 4.61664 21 5.21338V16.4634C21 17.0601 20.7629 17.6324 20.341 18.0544C19.919 18.4763 19.3467 18.7134 18.75 18.7134L15.3761 18.7123L12.7954 21.293C12.6017 21.4867 12.3439 21.6031 12.0705 21.6203C11.7971 21.6374 11.5268 21.5543 11.3104 21.3864L11.2046 21.293L8.62388 18.7123L5.25 18.7134C4.65326 18.7134 4.08097 18.4763 3.65901 18.0544C3.23705 17.6324 3 17.0601 3 16.4634V5.21338C3 4.61664 3.23705 4.04435 3.65901 3.62239C4.08097 3.20043 4.65326 2.96338 5.25 2.96338H18.75Z" stroke="black" stroke-width="1.5" stroke-linecap="round" stroke-linejoin="round"/>
<path fill-rule="evenodd" clip-rule="evenodd" d="M7.49888 9.71338C8.06138 9.71338 8.62388 9.15088 8.62388 8.58838C8.62388 8.02588 8.06138 7.46338 7.49888 7.46338C6.93638 7.46338 6.375 8.02588 6.375 8.58838C6.375 9.15088 6.93638 9.71338 7.49888 9.71338ZM7.49888 14.2134C8.06138 14.2134 8.62388 13.6509 8.62388 13.0884C8.62388 12.5259 8.06138 11.9634 7.49888 11.9634C6.93638 11.9634 6.375 12.5259 6.375 13.0884C6.375 13.6509 6.93638 14.2134 7.49888 14.2134Z" fill="black"/>
<path d="M17.625 13.0884H10.875" stroke="black" stroke-width="1.5" stroke-linecap="round" stroke-linejoin="round"/>
</svg>
