<svg width="24" height="24" viewBox="0 0 24 24" fill="none" xmlns="http://www.w3.org/2000/svg">
<path d="M13.731 3.25C13.2881 3.25256 12.8575 3.39572 12.5013 3.65885C12.1451 3.92198 11.8816 4.29146 11.749 4.714L10.947 7.205C10.8579 7.48798 10.7069 7.74759 10.505 7.965C9.89291 8.62801 9.37841 9.37485 8.977 10.183H8.325C8.02157 9.76307 7.58253 9.46072 7.082 9.327C6.793 9.249 6.465 9.25 6.084 9.25H5.916C5.536 9.25 5.206 9.25 4.918 9.327C4.53662 9.42913 4.18883 9.62983 3.90956 9.90892C3.63029 10.188 3.42938 10.5357 3.327 10.917C3.249 11.207 3.25 11.535 3.25 11.917V18.084C3.25 18.464 3.25 18.794 3.327 19.082C3.42914 19.4634 3.62983 19.8112 3.90892 20.0904C4.18802 20.3697 4.53568 20.5706 4.917 20.673C5.207 20.751 5.535 20.751 5.917 20.75H6.084C6.464 20.75 6.794 20.75 7.082 20.673C7.60942 20.5319 8.06755 20.2039 8.371 19.75H15C16.341 19.75 17.256 19.692 17.984 19.383C18.6106 19.1159 19.1556 18.6882 19.564 18.143C20.029 17.525 20.244 16.717 20.563 15.521L20.603 15.373L21.294 13.006L21.304 12.976C21.464 12.442 21.597 11.996 21.674 11.626C21.752 11.247 21.79 10.862 21.689 10.476C21.5425 9.90761 21.1887 9.41462 20.697 9.094C20.358 8.875 19.98 8.798 19.599 8.763C19.232 8.729 18.776 8.729 18.235 8.729H15.933C16.466 7.034 16.291 5.663 16.003 4.752C15.67 3.694 14.661 3.25 13.782 3.25H13.731ZM8.751 18.25V11.916L8.75 11.683H9.932L10.226 11.047C10.5758 10.2914 11.0414 9.59499 11.606 8.983C11.956 8.606 12.217 8.155 12.376 7.664L13.176 5.174C13.2113 5.05345 13.2842 4.94732 13.384 4.87105C13.4838 4.79479 13.6054 4.75238 13.731 4.75H13.782C14.232 4.75 14.496 4.96 14.573 5.204C14.819 5.983 14.997 7.354 14.157 9.163C14.1039 9.27727 14.0805 9.40308 14.0888 9.5288C14.0972 9.65453 14.1371 9.77612 14.2049 9.88235C14.2726 9.98858 14.3661 10.076 14.4766 10.1366C14.587 10.1972 14.711 10.229 14.837 10.229H18.201C18.785 10.229 19.171 10.229 19.461 10.256C19.746 10.283 19.841 10.328 19.882 10.354C20.053 10.464 20.182 10.641 20.238 10.854C20.253 10.912 20.265 11.031 20.204 11.324C20.144 11.62 20.029 12.004 19.857 12.578L19.855 12.583L19.157 14.969L19.155 14.977C18.778 16.39 18.632 16.887 18.365 17.242C18.1152 17.576 17.7816 17.8382 17.398 18.002C16.989 18.175 16.372 18.25 15 18.25H8.751ZM5.306 10.775C5.377 10.756 5.486 10.75 6 10.75C6.513 10.75 6.623 10.756 6.694 10.775C6.82107 10.8091 6.93693 10.876 7.02996 10.969C7.12298 11.0621 7.1899 11.1779 7.224 11.305C7.244 11.377 7.25 11.487 7.25 12V18C7.25 18.513 7.244 18.623 7.225 18.694C7.1909 18.8211 7.12398 18.9369 7.03096 19.03C6.93793 19.123 6.82207 19.1899 6.695 19.224C6.623 19.244 6.513 19.25 6 19.25C5.487 19.25 5.377 19.244 5.306 19.224C5.17893 19.1899 5.06307 19.123 4.97005 19.03C4.87702 18.9369 4.8101 18.8211 4.776 18.694C4.756 18.623 4.75 18.514 4.75 18V12C4.75 11.487 4.757 11.377 4.776 11.306C4.8101 11.1789 4.87702 11.0631 4.97005 10.97C5.06307 10.877 5.17893 10.8101 5.306 10.776" fill="black"/>
</svg>
