<svg width="24" height="24" viewBox="0 0 24 24" fill="none" xmlns="http://www.w3.org/2000/svg">
<path d="M22.5 5.99993C22.5 5.20428 22.1839 4.44122 21.6213 3.87861C21.0587 3.316 20.2956 2.99993 19.5 2.99993H18.75V2.27103C18.75 1.86743 18.4397 1.52103 18.0361 1.50087C17.9347 1.49598 17.8333 1.51174 17.7382 1.54717C17.6431 1.58261 17.5561 1.637 17.4826 1.70704C17.4091 1.77707 17.3506 1.8613 17.3106 1.95462C17.2706 2.04794 17.25 2.14841 17.25 2.24993V2.99993H6.75V2.27103C6.75 1.86743 6.43969 1.52103 6.03609 1.50087C5.93469 1.49598 5.83334 1.51174 5.7382 1.54717C5.64307 1.58261 5.55611 1.637 5.48261 1.70704C5.40911 1.77707 5.3506 1.8613 5.31062 1.95462C5.27063 2.04794 5.25001 2.14841 5.25 2.24993V2.99993H4.5C3.70435 2.99993 2.94129 3.316 2.37868 3.87861C1.81607 4.44122 1.5 5.20428 1.5 5.99993V6.56243C1.5 6.61216 1.51975 6.65985 1.55492 6.69501C1.59008 6.73018 1.63777 6.74993 1.6875 6.74993H22.3125C22.3622 6.74993 22.4099 6.73018 22.4451 6.69501C22.4802 6.65985 22.5 6.61216 22.5 6.56243V5.99993ZM1.5 19.4999C1.5 20.2956 1.81607 21.0586 2.37868 21.6213C2.94129 22.1839 3.70435 22.4999 4.5 22.4999H19.5C20.2956 22.4999 21.0587 22.1839 21.6213 21.6213C22.1839 21.0586 22.5 20.2956 22.5 19.4999V8.43743C22.5 8.3877 22.4802 8.34001 22.4451 8.30485C22.4099 8.26969 22.3622 8.24993 22.3125 8.24993H1.6875C1.63777 8.24993 1.59008 8.26969 1.55492 8.30485C1.51975 8.34001 1.5 8.3877 1.5 8.43743V19.4999Z" fill="black"/>
</svg>
