<svg width="24" height="24" viewBox="0 0 24 24" fill="none" xmlns="http://www.w3.org/2000/svg">
<path fill-rule="evenodd" clip-rule="evenodd" d="M11.9999 1.25C9.94451 1.25 7.97327 2.06652 6.51986 3.51992C5.06646 4.97333 4.24994 6.94457 4.24994 9V9.704C4.24988 10.4009 4.04355 11.0822 3.65694 11.662L2.50994 13.385C1.17594 15.385 2.19394 18.103 4.51294 18.735C5.26828 18.941 6.02961 19.1153 6.79694 19.258L6.79894 19.263C7.56694 21.315 9.62194 22.75 11.9999 22.75C14.3779 22.75 16.4329 21.315 17.2019 19.263L17.2039 19.258C17.972 19.1145 18.734 18.94 19.4879 18.735C21.8069 18.103 22.8249 15.385 21.4909 13.385L20.3429 11.662C19.9563 11.0822 19.75 10.4009 19.7499 9.704V9C19.7499 6.94457 18.9334 4.97333 17.48 3.51992C16.0266 2.06652 14.0554 1.25 11.9999 1.25ZM15.3759 19.537C13.1329 19.8046 10.866 19.8046 8.62294 19.537C9.33394 20.558 10.5709 21.25 11.9999 21.25C13.4289 21.25 14.6649 20.558 15.3759 19.537ZM5.74994 9C5.74994 7.3424 6.40842 5.75269 7.58052 4.58058C8.75263 3.40848 10.3423 2.75 11.9999 2.75C13.6575 2.75 15.2473 3.40848 16.4194 4.58058C17.5915 5.75269 18.2499 7.3424 18.2499 9V9.704C18.2499 10.697 18.5439 11.668 19.0949 12.494L20.2429 14.217C20.4208 14.4834 20.5328 14.7883 20.5696 15.1065C20.6065 15.4247 20.5671 15.7471 20.4547 16.0471C20.3424 16.3471 20.1603 16.6161 19.9235 16.8319C19.6868 17.0476 19.4021 17.204 19.0929 17.288C14.4487 18.5546 9.55014 18.5546 4.90594 17.288C4.59698 17.2039 4.31243 17.0476 4.07576 16.8319C3.8391 16.6162 3.6571 16.3473 3.54478 16.0475C3.43245 15.7476 3.39302 15.4254 3.42974 15.1073C3.46645 14.7892 3.57826 14.4844 3.75594 14.218L4.90594 12.494C5.45648 11.6677 5.75015 10.6969 5.74994 9.704V9Z" fill="black"/>
</svg>
