<svg width="24" height="24" viewBox="0 0 24 24" fill="none" xmlns="http://www.w3.org/2000/svg">
<path d="M13.7323 6.18736C13.9037 6.3588 14 6.5913 14 6.83373C14 7.07616 13.9037 7.30866 13.7323 7.4801L9.2068 12.0056L13.7323 16.5311C13.8989 16.7036 13.991 16.9345 13.9889 17.1742C13.9868 17.4139 13.8907 17.6432 13.7212 17.8128C13.5517 17.9823 13.3224 18.0784 13.0827 18.0805C12.8429 18.0826 12.612 17.9904 12.4396 17.8239L7.26768 12.652C7.09628 12.4806 7 12.2481 7 12.0056C7 11.7632 7.09628 11.5307 7.26768 11.3593L12.4396 6.18736C12.611 6.01596 12.8435 5.91968 13.0859 5.91968C13.3284 5.91968 13.5609 6.01596 13.7323 6.18736Z" fill="black"/>
</svg>
