<svg width="24" height="24" viewBox="0 0 24 24" fill="none" xmlns="http://www.w3.org/2000/svg">
<path d="M9.26768 6.18736C9.09628 6.3588 9 6.5913 9 6.83373C9 7.07616 9.09628 7.30866 9.26768 7.4801L13.7932 12.0056L9.26768 16.5311C9.10114 16.7036 9.00899 16.9345 9.01107 17.1742C9.01316 17.4139 9.10931 17.6432 9.27882 17.8128C9.44832 17.9823 9.67763 18.0784 9.91734 18.0805C10.1571 18.0826 10.388 17.9904 10.5604 17.8239L15.7323 12.652C15.9037 12.4806 16 12.2481 16 12.0056C16 11.7632 15.9037 11.5307 15.7323 11.3593L10.5604 6.18736C10.389 6.01596 10.1565 5.91968 9.91405 5.91968C9.67163 5.91968 9.43913 6.01596 9.26768 6.18736Z" fill="black"/>
</svg>
