<svg width="24" height="24" viewBox="0 0 24 24" fill="none" xmlns="http://www.w3.org/2000/svg">
<path d="M16.707 13.293C16.5194 13.1055 16.2651 13.0002 16 13.0002C15.7348 13.0002 15.4805 13.1055 15.293 13.293L13 15.586V8C13 7.73478 12.8946 7.48043 12.7071 7.29289C12.5195 7.10536 12.2652 7 12 7C11.7348 7 11.4804 7.10536 11.2929 7.29289C11.1053 7.48043 11 7.73478 11 8V15.586L8.70697 13.293C8.51946 13.1055 8.26515 13.0002 7.99997 13.0002C7.73479 13.0002 7.48048 13.1055 7.29297 13.293C7.10546 13.4805 7.00012 13.7348 7.00012 14C7.00012 14.1313 7.02598 14.2613 7.07623 14.3826C7.12648 14.5039 7.20013 14.6142 7.29297 14.707L12 19.414L16.707 14.707C16.8944 14.5195 16.9998 14.2652 16.9998 14C16.9998 13.7348 16.8944 13.4805 16.707 13.293Z" fill="black"/>
</svg>
