<svg width="24" height="24" viewBox="0 0 24 24" fill="none" xmlns="http://www.w3.org/2000/svg">
<path d="M5.00006 5.00003C5.00015 4.80705 4.9444 4.61817 4.83953 4.45616C4.73466 4.29416 4.58516 4.16596 4.40906 4.08703C4.55306 3.97403 4.72706 3.89703 4.91906 3.86903L15.7171 2.32603C16.0007 2.28548 16.2898 2.30637 16.5647 2.38728C16.8396 2.46819 17.094 2.60723 17.3104 2.79499C17.5269 2.98275 17.7006 3.21484 17.8195 3.47554C17.9385 3.73624 18.0001 4.01946 18.0001 4.30603V5.12603C17.6734 5.04204 17.3374 4.9997 17.0001 5.00003H5.00006ZM9.75006 13C9.75006 12.4033 9.98711 11.831 10.4091 11.409C10.831 10.9871 11.4033 10.75 12.0001 10.75C12.5968 10.75 13.1691 10.9871 13.591 11.409C14.013 11.831 14.2501 12.4033 14.2501 13C14.2501 13.5968 14.013 14.1691 13.591 14.591C13.1691 15.013 12.5968 15.25 12.0001 15.25C11.4033 15.25 10.831 15.013 10.4091 14.591C9.98711 14.1691 9.75006 13.5968 9.75006 13Z" fill="black"/>
<path fill-rule="evenodd" clip-rule="evenodd" d="M18 6.17C19.165 6.583 20 7.694 20 9V19C20 19.7956 19.6839 20.5587 19.1213 21.1213C18.5587 21.6839 17.7956 22 17 22H7C6.20435 22 5.44129 21.6839 4.87868 21.1213C4.31607 20.5587 4 19.7956 4 19V5C4 5.26522 4.10536 5.51957 4.29289 5.70711C4.48043 5.89464 4.73478 6 5 6H17C17.35 6 17.687 6.06 18 6.17ZM12 9.25C11.0054 9.25 10.0516 9.64509 9.34835 10.3483C8.64509 11.0516 8.25 12.0054 8.25 13C8.25 13.9946 8.64509 14.9484 9.34835 15.6517C10.0516 16.3549 11.0054 16.75 12 16.75C12.9946 16.75 13.9484 16.3549 14.6517 15.6517C15.3549 14.9484 15.75 13.9946 15.75 13C15.75 12.0054 15.3549 11.0516 14.6517 10.3483C13.9484 9.64509 12.9946 9.25 12 9.25ZM10 18.25C9.80109 18.25 9.61032 18.329 9.46967 18.4697C9.32902 18.6103 9.25 18.8011 9.25 19C9.25 19.1989 9.32902 19.3897 9.46967 19.5303C9.61032 19.671 9.80109 19.75 10 19.75H14C14.1989 19.75 14.3897 19.671 14.5303 19.5303C14.671 19.3897 14.75 19.1989 14.75 19C14.75 18.8011 14.671 18.6103 14.5303 18.4697C14.3897 18.329 14.1989 18.25 14 18.25H10Z" fill="black"/>
</svg>
