<svg width="24" height="24" viewBox="0 0 24 24" fill="none" xmlns="http://www.w3.org/2000/svg">
<path d="M11.007 21H9.605C6.02 21 4.228 21 3.114 19.865C2 18.73 2 16.903 2 13.25C2 9.597 2 7.77 3.114 6.635C4.228 5.5 6.02 5.5 9.605 5.5H13.408C16.993 5.5 18.786 5.5 19.9 6.635C20.757 7.508 20.954 8.791 21 11" stroke="black" stroke-width="1.5" stroke-linecap="round" stroke-linejoin="round"/>
<path d="M17.5 22C18.0909 22 18.6761 21.8836 19.2221 21.6575C19.768 21.4313 20.2641 21.0998 20.682 20.682C21.0998 20.2641 21.4313 19.768 21.6575 19.2221C21.8836 18.6761 22 18.0909 22 17.5C22 16.9091 21.8836 16.3239 21.6575 15.7779C21.4313 15.232 21.0998 14.7359 20.682 14.318C20.2641 13.9002 19.768 13.5687 19.2221 13.3425C18.6761 13.1164 18.0909 13 17.5 13C16.3065 13 15.1619 13.4741 14.318 14.318C13.4741 15.1619 13 16.3065 13 17.5C13 18.6935 13.4741 19.8381 14.318 20.682C15.1619 21.5259 16.3065 22 17.5 22Z" stroke="black" stroke-width="1.5" stroke-linecap="round" stroke-linejoin="round"/>
<path d="M19.5 18L18.914 18.554C18.247 19.184 17.914 19.5 17.5 19.5M17.5 19.5C17.086 19.5 16.753 19.184 16.086 18.554L15.5 18M17.5 19.5V15.5M16 5.5L15.9 5.19C15.406 3.65 15.158 2.88 14.569 2.44C13.979 2 13.197 2 11.632 2H11.368C9.803 2 9.02 2 8.431 2.44C7.841 2.88 7.594 3.65 7.099 5.19L7 5.5" stroke="black" stroke-width="1.5" stroke-linecap="round" stroke-linejoin="round"/>
</svg>
