<svg width="24" height="24" viewBox="0 0 24 24" fill="none" xmlns="http://www.w3.org/2000/svg">
<path d="M11.007 21H9.605C6.02 21 4.228 21 3.114 19.865C2 18.73 2 16.903 2 13.25C2 9.597 2 7.77 3.114 6.635C4.228 5.5 6.02 5.5 9.605 5.5H13.408C16.993 5.5 18.786 5.5 19.9 6.635C20.757 7.508 20.954 8.791 21 11" stroke="black" stroke-width="1.5" stroke-linecap="round" stroke-linejoin="round"/>
<path d="M16 5.5L15.9 5.19C15.406 3.65 15.158 2.88 14.569 2.44C13.979 2 13.197 2 11.632 2H11.368C9.803 2 9.02 2 8.431 2.44C7.841 2.88 7.594 3.65 7.099 5.19L7 5.5" stroke="black" stroke-width="1.5" stroke-linecap="round" stroke-linejoin="round"/>
</svg>
