<svg width="24" height="24" viewBox="0 0 24 24" fill="none" xmlns="http://www.w3.org/2000/svg">
<path d="M6.26414 14.6897C6.43332 14.8588 6.66274 14.9538 6.90196 14.9538C7.14118 14.9538 7.37061 14.8588 7.53978 14.6897L12.0054 10.224L16.4711 14.6897C16.6413 14.854 16.8691 14.9449 17.1057 14.9429C17.3422 14.9408 17.5685 14.8459 17.7358 14.6787C17.903 14.5114 17.9979 14.2851 18 14.0486C18.002 13.812 17.9111 13.5842 17.7468 13.414L12.6433 8.31053C12.4741 8.1414 12.2447 8.04639 12.0054 8.04639C11.7662 8.04639 11.5368 8.1414 11.3676 8.31053L6.26414 13.414C6.09501 13.5832 6 13.8126 6 14.0518C6 14.2911 6.09501 14.5205 6.26414 14.6897Z" fill="black"/>
</svg>
