<svg width="23" height="24" viewBox="0 0 23 24" fill="none" xmlns="http://www.w3.org/2000/svg">
<path d="M11.5 1.97852C6.25202 1.97852 2 6.4062 2 11.871C2 17.3358 6.25202 21.7635 11.5 21.7635C16.748 21.7635 21 17.3358 21 11.871C21 6.4062 16.748 1.97852 11.5 1.97852ZM14.5645 8.67987C15.2425 8.67987 15.7903 9.25028 15.7903 9.95632C15.7903 10.6624 15.2425 11.2328 14.5645 11.2328C13.8865 11.2328 13.3387 10.6624 13.3387 9.95632C13.3387 9.25028 13.8865 8.67987 14.5645 8.67987ZM8.43548 8.67987C9.11351 8.67987 9.66129 9.25028 9.66129 9.95632C9.66129 10.6624 9.11351 11.2328 8.43548 11.2328C7.75746 11.2328 7.20968 10.6624 7.20968 9.95632C7.20968 9.25028 7.75746 8.67987 8.43548 8.67987ZM15.8976 15.469C14.8058 16.8332 13.2046 17.615 11.5 17.615C9.79536 17.615 8.19415 16.8332 7.10242 15.469C6.58145 14.8188 7.52379 14.0051 8.04476 14.6513C8.90282 15.7243 10.1593 16.3346 11.5 16.3346C12.8407 16.3346 14.0972 15.7203 14.9552 14.6513C15.4685 14.0051 16.4147 14.8188 15.8976 15.469Z" fill="black"/>
</svg>
