<svg width="24" height="24" viewBox="0 0 24 24" fill="none" xmlns="http://www.w3.org/2000/svg">
<path d="M1.5 6.375C1.5 5.34 2.34 4.5 3.375 4.5H17.625C18.66 4.5 19.5 5.34 19.5 6.375V14.625C19.5 15.66 18.66 16.5 17.625 16.5H3.375C2.34 16.5 1.5 15.66 1.5 14.625V6.375ZM6 6.75V6H4.5V6.75C4.5 6.94891 4.42098 7.13968 4.28033 7.28033C4.13968 7.42098 3.94891 7.5 3.75 7.5H3V9H3.75C4.34674 9 4.91903 8.76295 5.34099 8.34099C5.76295 7.91903 6 7.34674 6 6.75ZM13.5 10.5C13.5 9.70435 13.1839 8.94129 12.6213 8.37868C12.0587 7.81607 11.2956 7.5 10.5 7.5C9.70435 7.5 8.94129 7.81607 8.37868 8.37868C7.81607 8.94129 7.5 9.70435 7.5 10.5C7.5 11.2956 7.81607 12.0587 8.37868 12.6213C8.94129 13.1839 9.70435 13.5 10.5 13.5C11.2956 13.5 12.0587 13.1839 12.6213 12.6213C13.1839 12.0587 13.5 11.2956 13.5 10.5ZM16.5 6H15V6.75C15 7.34674 15.2371 7.91903 15.659 8.34099C16.081 8.76295 16.6533 9 17.25 9H18V7.5H17.25C17.0511 7.5 16.8603 7.42098 16.7197 7.28033C16.579 7.13968 16.5 6.94891 16.5 6.75V6ZM6 14.25C6 13.6533 5.76295 13.081 5.34099 12.659C4.91903 12.2371 4.34674 12 3.75 12H3V13.5H3.75C3.94891 13.5 4.13968 13.579 4.28033 13.7197C4.42098 13.8603 4.5 14.0511 4.5 14.25V15H6V14.25ZM16.5 15V14.25C16.5 14.0511 16.579 13.8603 16.7197 13.7197C16.8603 13.579 17.0511 13.5 17.25 13.5H18V12H17.25C16.6533 12 16.081 12.2371 15.659 12.659C15.2371 13.081 15 13.6533 15 14.25V15H16.5ZM6.75 19.5C6.27483 19.5002 5.8118 19.3499 5.42728 19.0708C5.04276 18.7916 4.75649 18.3979 4.6095 17.946C4.8175 17.982 5.031 18 5.25 18H17.625C18.5201 18 19.3785 17.6444 20.0115 17.0115C20.6444 16.3785 21 15.5201 21 14.625V7.6275C21.4389 7.78266 21.8188 8.07012 22.0875 8.45026C22.3561 8.8304 22.5002 9.28451 22.5 9.75V14.625C22.5 15.2652 22.3739 15.8991 22.1289 16.4906C21.8839 17.082 21.5248 17.6195 21.0721 18.0721C20.6195 18.5248 20.082 18.8839 19.4906 19.1289C18.8991 19.3739 18.2652 19.5 17.625 19.5H6.75Z" fill="black"/>
</svg>
