<svg width="24" height="24" viewBox="0 0 24 24" fill="none" xmlns="http://www.w3.org/2000/svg">
<path fill-rule="evenodd" clip-rule="evenodd" d="M6.75 12C6.75 12.2298 6.70474 12.4574 6.61679 12.6697C6.52884 12.882 6.39994 13.0749 6.23744 13.2374C6.07493 13.3999 5.88202 13.5288 5.6697 13.6168C5.45738 13.7047 5.22981 13.75 5 13.75C4.77019 13.75 4.54262 13.7047 4.3303 13.6168C4.11798 13.5288 3.92507 13.3999 3.76256 13.2374C3.60006 13.0749 3.47116 12.882 3.38321 12.6697C3.29527 12.4574 3.25 12.2298 3.25 12C3.25 11.5359 3.43437 11.0908 3.76256 10.7626C4.09075 10.4344 4.53587 10.25 5 10.25C5.46413 10.25 5.90925 10.4344 6.23744 10.7626C6.56563 11.0908 6.75 11.5359 6.75 12ZM12 10.25C12.4641 10.25 12.9092 10.4344 13.2374 10.7626C13.5656 11.0908 13.75 11.5359 13.75 12C13.75 12.4641 13.5656 12.9092 13.2374 13.2374C12.9092 13.5656 12.4641 13.75 12 13.75C11.5359 13.75 11.0908 13.5656 10.7626 13.2374C10.4344 12.9092 10.25 12.4641 10.25 12C10.25 11.5359 10.4344 11.0908 10.7626 10.7626C11.0908 10.4344 11.5359 10.25 12 10.25ZM19 10.25C19.4641 10.25 19.9092 10.4344 20.2374 10.7626C20.5656 11.0908 20.75 11.5359 20.75 12C20.75 12.4641 20.5656 12.9092 20.2374 13.2374C19.9092 13.5656 19.4641 13.75 19 13.75C18.5359 13.75 18.0908 13.5656 17.7626 13.2374C17.4344 12.9092 17.25 12.4641 17.25 12C17.25 11.5359 17.4344 11.0908 17.7626 10.7626C18.0908 10.4344 18.5359 10.25 19 10.25Z" fill="black"/>
</svg>
