<svg width="24" height="24" viewBox="0 0 24 24" fill="none" xmlns="http://www.w3.org/2000/svg">
<path d="M11.269 20.75C11.712 20.7476 12.1428 20.6046 12.4993 20.3414C12.8557 20.0783 13.1193 19.7087 13.252 19.286L14.052 16.795C14.144 16.51 14.296 16.25 14.495 16.035C15.1071 15.372 15.6216 14.6251 16.023 13.817H16.675C16.974 14.23 17.409 14.537 17.917 14.673C18.207 14.751 18.535 14.751 18.916 14.75H19.084C19.464 14.75 19.794 14.75 20.082 14.673C20.4634 14.5708 20.8112 14.3701 21.0904 14.0911C21.3697 13.812 21.5706 13.4643 21.673 13.083C21.751 12.793 21.75 12.465 21.75 12.083V5.91698C21.75 5.53698 21.75 5.20698 21.673 4.91898C21.5708 4.53759 21.3701 4.1898 21.0911 3.91053C20.812 3.63126 20.4643 3.43035 20.083 3.32798C19.793 3.24998 19.465 3.25098 19.083 3.25098H18.916C18.536 3.25098 18.206 3.25098 17.918 3.32798C17.3906 3.46907 16.9324 3.79711 16.629 4.25098H9.99998C8.65898 4.25098 7.74398 4.30898 7.01598 4.61798C6.38936 4.88506 5.84434 5.3128 5.43598 5.85798C4.97098 6.47598 4.75598 7.28398 4.43698 8.47998L4.39698 8.62798L3.70498 10.995L3.69698 11.025C3.53698 11.559 3.40298 12.005 3.32698 12.375C3.24798 12.754 3.20998 13.139 3.31098 13.525C3.45798 14.093 3.81098 14.588 4.30298 14.907C4.64198 15.126 5.01998 15.203 5.40098 15.238C5.76798 15.272 6.22398 15.272 6.76498 15.272H9.06698C8.53398 16.966 8.70898 18.338 8.99698 19.249C9.32998 20.307 10.339 20.751 11.218 20.751L11.269 20.75ZM16.249 5.74998V12.084L16.25 12.317H15.068L14.774 12.953C14.4242 13.7086 13.9586 14.405 13.394 15.017C13.0433 15.3946 12.7804 15.845 12.624 16.336L11.824 18.826C11.7887 18.9465 11.7158 19.0527 11.616 19.1289C11.5161 19.2052 11.3946 19.2476 11.269 19.25H11.218C10.768 19.25 10.504 19.04 10.427 18.796C10.181 18.017 10.003 16.646 10.843 14.837C10.8961 14.7227 10.9195 14.5969 10.9111 14.4712C10.9028 14.3454 10.8629 14.2239 10.7951 14.1176C10.7273 14.0114 10.6339 13.924 10.5234 13.8634C10.4129 13.8028 10.289 13.771 10.163 13.771H6.79898C6.21498 13.771 5.82898 13.771 5.53898 13.744C5.25398 13.717 5.15898 13.672 5.11798 13.646C4.94118 13.5295 4.81423 13.3512 4.76198 13.146C4.74698 13.088 4.73498 12.969 4.79598 12.676C4.85598 12.38 4.97098 11.996 5.14298 11.422L5.14398 11.417L5.84198 9.03098L5.84498 9.02298C6.22198 7.60998 6.36798 7.11298 6.63498 6.75798C6.88998 6.41998 7.22398 6.15798 7.60198 5.99798C8.00998 5.82498 8.62798 5.74998 9.99998 5.74998H16.249ZM19.694 13.224C19.623 13.244 19.514 13.25 19 13.25C18.487 13.25 18.377 13.244 18.306 13.224C18.1789 13.1899 18.0631 13.123 17.97 13.0299C17.877 12.9369 17.8101 12.821 17.776 12.694C17.756 12.623 17.75 12.514 17.75 12V5.99998C17.75 5.48698 17.756 5.37698 17.775 5.30598C17.8091 5.17891 17.876 5.06305 17.969 4.97002C18.0621 4.87699 18.1779 4.81007 18.305 4.77598C18.377 4.75598 18.487 4.74998 19 4.74998C19.513 4.74998 19.623 4.75598 19.694 4.77598C19.821 4.81007 19.9369 4.87699 20.0299 4.97002C20.123 5.06305 20.1899 5.17891 20.224 5.30598C20.244 5.37698 20.25 5.48598 20.25 5.99998V12C20.25 12.513 20.243 12.623 20.224 12.694C20.1899 12.821 20.123 12.9369 20.0299 13.0299C19.9369 13.123 19.821 13.1899 19.694 13.224Z" fill="black"/>
</svg>
