<svg width="24" height="24" viewBox="0 0 24 24" fill="none" xmlns="http://www.w3.org/2000/svg">
<path d="M13.5 10.5C13.5 11.2956 13.1839 12.0587 12.6213 12.6213C12.0587 13.1839 11.2956 13.5 10.5 13.5C9.70435 13.5 8.94129 13.1839 8.37868 12.6213C7.81607 12.0587 7.5 11.2956 7.5 10.5C7.5 9.70435 7.81607 8.94129 8.37868 8.37868C8.94129 7.81607 9.70435 7.5 10.5 7.5C11.2956 7.5 12.0587 7.81607 12.6213 8.37868C13.1839 8.94129 13.5 9.70435 13.5 10.5ZM12 10.5C12 10.1022 11.842 9.72064 11.5607 9.43934C11.2794 9.15804 10.8978 9 10.5 9C10.1022 9 9.72064 9.15804 9.43934 9.43934C9.15804 9.72064 9 10.1022 9 10.5C9 10.8978 9.15804 11.2794 9.43934 11.5607C9.72064 11.842 10.1022 12 10.5 12C10.8978 12 11.2794 11.842 11.5607 11.5607C11.842 11.2794 12 10.8978 12 10.5ZM1.5 6.375C1.5 5.34 2.34 4.5 3.375 4.5H17.625C18.66 4.5 19.5 5.34 19.5 6.375V14.625C19.5 15.66 18.66 16.5 17.625 16.5H3.375C2.34 16.5 1.5 15.66 1.5 14.625V6.375ZM3.375 6C3.27554 6 3.18016 6.03951 3.10984 6.10983C3.03951 6.18016 3 6.27554 3 6.375V7.5H3.75C3.94891 7.5 4.13968 7.42098 4.28033 7.28033C4.42098 7.13968 4.5 6.94891 4.5 6.75V6H3.375ZM3 14.625C3 14.832 3.168 15 3.375 15H4.5V14.25C4.5 14.0511 4.42098 13.8603 4.28033 13.7197C4.13968 13.579 3.94891 13.5 3.75 13.5H3V14.625ZM6 14.25V15H15V14.25C15 13.6533 15.2371 13.081 15.659 12.659C16.081 12.2371 16.6533 12 17.25 12H18V9H17.25C16.6533 9 16.081 8.76295 15.659 8.34099C15.2371 7.91903 15 7.34674 15 6.75V6H6V6.75C6 7.34674 5.76295 7.91903 5.34099 8.34099C4.91903 8.76295 4.34674 9 3.75 9H3V12H3.75C4.34674 12 4.91903 12.2371 5.34099 12.659C5.76295 13.081 6 13.6533 6 14.25ZM16.5 15H17.625C17.7245 15 17.8198 14.9605 17.8902 14.8902C17.9605 14.8198 18 14.7245 18 14.625V13.5H17.25C17.0511 13.5 16.8603 13.579 16.7197 13.7197C16.579 13.8603 16.5 14.0511 16.5 14.25V15ZM18 7.5V6.375C18 6.27554 17.9605 6.18016 17.8902 6.10983C17.8198 6.03951 17.7245 6 17.625 6H16.5V6.75C16.5 6.94891 16.579 7.13968 16.7197 7.28033C16.8603 7.42098 17.0511 7.5 17.25 7.5H18ZM6.75 19.5C6.27483 19.5002 5.8118 19.3499 5.42728 19.0708C5.04276 18.7916 4.75649 18.3979 4.6095 17.946C4.8175 17.982 5.031 18 5.25 18H17.625C18.5201 18 19.3785 17.6444 20.0115 17.0115C20.6444 16.3785 21 15.5201 21 14.625V7.6275C21.4389 7.78266 21.8188 8.07012 22.0875 8.45026C22.3561 8.8304 22.5002 9.28451 22.5 9.75V14.625C22.5 15.2652 22.3739 15.8991 22.1289 16.4906C21.8839 17.082 21.5248 17.6195 21.0721 18.0721C20.6195 18.5248 20.082 18.8839 19.4906 19.1289C18.8991 19.3739 18.2652 19.5 17.625 19.5H6.75Z" fill="black"/>
</svg>
