<svg width="24" height="24" viewBox="0 0 24 24" fill="none" xmlns="http://www.w3.org/2000/svg">
<path d="M12.75 2.75V4.5H14.725C15.076 4.5 15.419 4.606 15.709 4.803L17.406 5.957C17.448 5.985 17.4947 5.99933 17.546 6H21.648C21.847 6 22.0377 6.07902 22.1784 6.21967C22.319 6.36032 22.398 6.55109 22.398 6.75C22.398 6.94891 22.319 7.13968 22.1784 7.28033C22.0377 7.42098 21.847 7.5 21.648 7.5H20.07L23.436 15.18C23.5034 15.3336 23.5173 15.5053 23.4756 15.6677C23.4339 15.8301 23.339 15.9739 23.206 16.076C23.106 16.15 23.0027 16.2187 22.896 16.282C22.6429 16.4343 22.3788 16.5676 22.106 16.681C21.2015 17.0593 20.2305 17.2527 19.25 17.25C18.2699 17.2543 17.2989 17.0611 16.395 16.682C16.1222 16.5683 15.8582 16.4346 15.605 16.282C15.4987 16.221 15.3961 16.1535 15.298 16.08L15.293 16.076C15.1601 15.9739 15.0651 15.8301 15.0234 15.6677C14.9818 15.5053 14.9957 15.3336 15.063 15.18L18.431 7.5H17.545C17.194 7.5 16.851 7.394 16.561 7.197L14.864 6.043C14.8227 6.01501 14.774 6.00004 14.724 6H12.75V20.5H17.237C17.4359 20.5 17.6267 20.579 17.7674 20.7197C17.908 20.8603 17.987 21.0511 17.987 21.25C17.987 21.4489 17.908 21.6397 17.7674 21.7803C17.6267 21.921 17.4359 22 17.237 22H6.76304C6.56413 22 6.37336 21.921 6.23271 21.7803C6.09206 21.6397 6.01304 21.4489 6.01304 21.25C6.01304 21.0511 6.09206 20.8603 6.23271 20.7197C6.37336 20.579 6.56413 20.5 6.76304 20.5H11.25V6H9.27504C9.22513 6.00004 9.17637 6.01501 9.13504 6.043L7.43904 7.197C7.14904 7.394 6.80604 7.5 6.45504 7.5H5.56904L8.93704 15.18C9.00223 15.3292 9.01709 15.4956 8.97939 15.654C8.94168 15.8124 8.85346 15.9542 8.72804 16.058C8.64804 16.123 8.56804 16.184 8.41804 16.281C8.16529 16.445 7.90054 16.5898 7.62604 16.714C6.72309 17.125 5.74213 17.3365 4.75004 17.334C3.75795 17.3365 2.77699 17.125 1.87404 16.714C1.59954 16.5898 1.33479 16.445 1.08204 16.281C0.975597 16.2123 0.872481 16.1385 0.773039 16.06C0.648354 15.9552 0.560642 15.8131 0.522833 15.6547C0.485024 15.4962 0.499119 15.3298 0.563039 15.18L3.93004 7.5H2.35304C2.15413 7.5 1.96336 7.42098 1.82271 7.28033C1.68206 7.13968 1.60304 6.94891 1.60304 6.75C1.60304 6.55109 1.68206 6.36032 1.82271 6.21967C1.96336 6.07902 2.15413 6 2.35304 6H6.45504C6.50571 6 6.55271 5.98567 6.59604 5.957L8.29104 4.803C8.58104 4.605 8.92504 4.5 9.27604 4.5H11.25V2.75C11.25 2.55109 11.3291 2.36032 11.4697 2.21967C11.6104 2.07902 11.8011 2 12 2C12.199 2 12.3897 2.07902 12.5304 2.21967C12.671 2.36032 12.75 2.55109 12.75 2.75ZM2.19304 15.198C2.97987 15.6175 3.85835 15.8357 4.75004 15.833C5.64173 15.8357 6.52021 15.6175 7.30704 15.198L4.75004 9.368L2.19304 15.198ZM16.703 15.174C16.785 15.214 16.8767 15.256 16.978 15.3C17.508 15.523 18.283 15.75 19.25 15.75C20.1316 15.7524 21.0023 15.5555 21.797 15.174L19.25 9.367L16.703 15.174Z" fill="black"/>
</svg>
