<svg width="24" height="24" viewBox="0 0 24 24" fill="none" xmlns="http://www.w3.org/2000/svg">
<path d="M6.26414 9.31053C6.43332 9.1414 6.66274 9.04639 6.90196 9.04639C7.14118 9.04639 7.37061 9.1414 7.53978 9.31053L12.0054 13.7762L16.4711 9.31053C16.6413 9.14619 16.8691 9.05526 17.1057 9.05731C17.3422 9.05937 17.5685 9.15425 17.7358 9.32151C17.903 9.48878 17.9979 9.71505 18 9.95159C18.002 10.1881 17.9111 10.416 17.7468 10.5862L12.6433 15.6897C12.4741 15.8588 12.2447 15.9538 12.0054 15.9538C11.7662 15.9538 11.5368 15.8588 11.3676 15.6897L6.26414 10.5862C6.09501 10.417 6 10.1876 6 9.94835C6 9.70913 6.09501 9.4797 6.26414 9.31053Z" fill="black"/>
</svg>
