<svg width="24" height="24" viewBox="0 0 24 24" fill="none" xmlns="http://www.w3.org/2000/svg">
<path d="M5.536 21.8859C5.69764 21.9705 5.87934 22.0092 6.06142 21.9979C6.24351 21.9867 6.41903 21.9258 6.569 21.8219L19.569 12.8219C19.7018 12.7299 19.8104 12.607 19.8854 12.4639C19.9603 12.3207 19.9995 12.1615 19.9995 11.9999C19.9995 11.8383 19.9603 11.6791 19.8854 11.5359C19.8104 11.3928 19.7018 11.2699 19.569 11.1779L6.569 2.17791C6.41897 2.0741 6.24341 2.01331 6.06131 2.00213C5.87922 1.99094 5.69753 2.02978 5.53593 2.11445C5.37433 2.19911 5.23896 2.32637 5.1445 2.48245C5.05003 2.63852 5.00006 2.81747 5 2.99991V20.9999C4.99997 21.1824 5.0499 21.3615 5.14439 21.5177C5.23887 21.6739 5.3743 21.8012 5.536 21.8859Z" fill="black"/>
</svg>
