<svg width="24" height="24" viewBox="0 0 24 24" fill="none" xmlns="http://www.w3.org/2000/svg">
<path d="M4.43105 12.8219L17.4311 21.8219C17.5811 21.9257 17.7566 21.9865 17.9387 21.9977C18.1208 22.0089 18.3025 21.9701 18.4641 21.8854C18.6257 21.8007 18.7611 21.6735 18.8556 21.5174C18.95 21.3613 19 21.1824 19.0001 20.9999V2.99993C19.0002 2.81741 18.9503 2.63833 18.8559 2.48211C18.7616 2.32589 18.6262 2.19849 18.4646 2.1137C18.3029 2.02892 18.1212 1.98999 17.939 2.00113C17.7568 2.01228 17.5811 2.07307 17.4311 2.17693L4.43105 11.1769C4.29861 11.2694 4.19045 11.3924 4.11576 11.5356C4.04108 11.6788 4.00208 11.8379 4.00208 11.9994C4.00208 12.1609 4.04108 12.3201 4.11576 12.4633C4.19045 12.6065 4.29861 12.7295 4.43105 12.8219Z" fill="black"/>
</svg>
